<svg width="48" height="47" viewBox="0 0 48 47" fill="none" xmlns="http://www.w3.org/2000/svg">
<ellipse opacity="0.1" cx="26.4066" cy="22.3116" rx="21.5933" ry="21.4729" fill="#F6762C"/>
<path d="M13.6594 15.5129H5.08374C3.89253 15.5129 2.88022 15.9275 2.04632 16.7565C1.21281 17.5855 0.795898 18.5922 0.795898 19.7769V28.3044C0.795898 29.4889 1.21257 30.4955 2.04632 31.3244C2.88014 32.1532 3.89277 32.568 5.08374 32.568H10.0861C10.6814 32.568 11.1878 32.7754 11.6047 33.1898C12.0216 33.604 12.23 34.1076 12.23 34.7001V35.4103C12.23 36.9798 11.6715 38.3192 10.555 39.4298C9.43846 40.5398 8.0912 41.095 6.51281 41.095H5.08374C4.6964 41.095 4.36154 41.2361 4.07854 41.5172C3.79578 41.7983 3.65428 42.1315 3.65428 42.5164V45.3593C3.65428 45.7437 3.79578 46.0775 4.07854 46.3587C4.36177 46.6397 4.69632 46.7808 5.08374 46.7808H6.51289C8.0614 46.7808 9.53905 46.4806 10.9461 45.8812C12.353 45.2817 13.57 44.4709 14.5974 43.4493C15.6245 42.4276 16.4397 41.2176 17.0426 39.8185C17.6454 38.4194 17.947 36.9501 17.947 35.4104V19.7765C17.947 18.5919 17.53 17.5853 16.6965 16.7564C15.8629 15.9274 14.8503 15.5129 13.6594 15.5129Z" fill="#F6762C"/>
<path d="M36.7058 16.7563C35.8723 15.9274 34.8599 15.5128 33.6686 15.5128H25.0933C23.9021 15.5128 22.8898 15.9274 22.0562 16.7563C21.2227 17.5855 20.8059 18.5921 20.8059 19.7767V28.3043C20.8059 29.4888 21.2227 30.4953 22.0562 31.3243C22.8898 32.1531 23.9022 32.5679 25.0933 32.5679H30.0957C30.691 32.5679 31.1977 32.7752 31.6145 33.1897C32.031 33.6041 32.2398 34.1075 32.2398 34.7V35.4102C32.2398 36.9796 31.6814 38.3191 30.5647 39.4297C29.4482 40.5397 28.1012 41.0949 26.5227 41.0949H25.0933C24.7062 41.0949 24.3711 41.2359 24.0884 41.517C23.8055 41.7982 23.6638 42.1314 23.6638 42.5163V45.3592C23.6638 45.7435 23.8055 46.0774 24.0884 46.3586C24.371 46.6396 24.7062 46.7807 25.0933 46.7807H26.5227C28.0709 46.7807 29.5485 46.4805 30.9557 45.8811C32.3624 45.2816 33.5792 44.4708 34.6067 43.4492C35.634 42.4275 36.4497 41.2172 37.0522 39.8183C37.655 38.4196 37.9566 36.9499 37.9566 35.4103V19.7764C37.9564 18.5918 37.5399 17.5852 36.7058 16.7563Z" fill="#F6762C"/>
</svg>
